# xmcd
#
# Track frame offsets: 
#        150
#        21313
#        37097
#        55789
#        79120
#        110883
#        132125
#        146185
#        164286
#        184017
#
# Disc length: 2798 seconds
#
# Revision: 0
# Processed by: cddbd v1.5.2PL0 Copyright (c) Steve Scherf et al.
# Submitted via: ExactAudioCopy v1.1
#
DISCID=8d0aec0a
DTITLE=fatsO - On Tape
DYEAR=2016
DGENRE=Kolumbien
TTITLE0=Hello
TTITLE1=It's getting bad
TTITLE2=Snake Eyes
TTITLE3=Crying out
TTITLE4=Brain Candy
TTITLE5=Out of Control
TTITLE6=Pimp
TTITLE7=Movie Star
TTITLE8=Oye Pelao
TTITLE9=I'll be fine
EXTD=
EXTT0=
EXTT1=
EXTT2=
EXTT3=
EXTT4=
EXTT5=
EXTT6=
EXTT7=
EXTT8=
EXTT9=
PLAYORDER=
